# Blender 3.6.0 Alpha
# www.blender.org
mtllib hubchicken.mtl
o hubchicken
v 0.483963 -0.480295 0.569836
v 0.568790 -0.173179 0.706567
v -0.392293 -0.050333 0.439897
v -0.478396 -0.480295 0.578988
v -0.587820 -0.173179 0.716146
v -0.955600 -0.173179 -0.378373
v -0.517342 -0.345166 -0.250290
v -0.785555 -0.480295 -0.335122
v -0.027071 -0.050333 -0.729260
v -0.008383 -0.345166 -0.625427
v -0.632932 -0.050333 -0.276247
v -0.012941 -0.480295 -0.908956
v 0.774042 -0.480295 -0.350517
v 0.913777 -0.173180 -0.397471
v -0.027892 -0.173180 -1.069166
v 0.506217 -0.345166 -0.260522
v -0.315832 -0.345166 0.349406
v 0.364186 -0.050333 0.435126
v 0.593549 -0.050333 -0.289868
v 0.316371 -0.345166 0.341043
v 0.246357 -0.480295 0.248804
v -0.247182 -0.480295 0.253498
v -0.404707 -0.480295 -0.215297
v -0.008477 -0.480295 -0.509583
v 0.395122 -0.480295 -0.223192
v -0.344780 0.673711 -0.014535
v 0.339483 0.673711 0.000397
v -0.364624 0.454467 0.284125
v -0.533951 0.361427 -0.178142
v 0.008776 0.706942 -0.379011
v 0.339576 0.454467 0.299507
v 0.529115 0.361427 -0.161594
v 0.268695 0.135490 0.198243
v 0.008105 0.401303 -0.651519
v 0.008375 -0.030638 -0.664813
v -0.295982 0.135490 0.185947
v -0.576810 0.035815 -0.345273
v 0.565796 0.035815 -0.320318
v 0.567074 -0.236641 -0.074374
v -0.582340 -0.236642 -0.092828
v -0.367496 -0.130313 0.416968
v 0.003176 -0.454353 -0.425646
v -0.348554 -0.477009 0.158196
v 0.322408 -0.477009 0.172849
v 0.336679 -0.130313 0.432380
v -0.308247 -0.234213 0.300749
v -0.210927 -0.305116 0.488429
v -0.432739 -0.224103 0.516613
v -0.344817 -0.420416 0.384863
v 0.406277 -0.323647 0.422615
v 0.242472 -0.243905 0.312681
v 0.199433 -0.423322 0.457969
v 0.217202 -0.197385 0.558055
v -0.028604 0.169921 0.411250
v -0.023554 0.262952 0.178704
v 0.088669 0.076881 0.214424
v -0.137090 0.076881 0.202828
v 0.318627 0.880576 -0.079802
v -0.299764 0.840080 -0.079261
v 0.246593 0.659271 0.005017
v -0.251646 0.659271 -0.005869
v 0.395951 0.081318 0.248099
v 0.408368 0.084898 -0.363195
v 0.666694 0.078254 -0.018570
v -0.405403 0.084502 -0.376957
v -0.418577 0.084502 0.227577
v -0.684716 0.084502 -0.064025
v 0.193787 0.804069 -0.052643
v 0.134516 0.879225 -0.083629
v 0.047981 0.803182 -0.055826
v -0.022417 0.877874 -0.087055
v -0.097824 0.802296 -0.059010
v -0.179349 0.876523 -0.090481
v -0.243630 0.801409 -0.062193
v -0.189366 0.659271 -0.004508
v -0.127086 0.659271 -0.003147
v -0.064806 0.659271 -0.001786
v -0.002527 0.659271 -0.000426
v 0.059753 0.659271 0.000935
v 0.122033 0.659271 0.002296
v 0.184313 0.659271 0.003657
v 0.395951 0.081318 0.248099
v 0.408368 0.084898 -0.363195
v 0.666694 0.078254 -0.018570
v -0.405403 0.084502 -0.376957
v -0.419823 0.082737 0.228138
v -0.684716 0.084502 -0.064025
v 0.318678 0.880576 -0.083320
v -0.299712 0.840080 -0.082778
v 0.246644 0.659271 0.001500
v -0.251594 0.659271 -0.009386
v 0.193839 0.804069 -0.056160
v 0.134568 0.879225 -0.087147
v 0.048033 0.803182 -0.059344
v -0.022365 0.877874 -0.090573
v -0.097772 0.802296 -0.062527
v -0.179297 0.876523 -0.093998
v -0.243578 0.801409 -0.065711
v -0.189314 0.659271 -0.008025
v -0.127034 0.659271 -0.006665
v -0.064754 0.659271 -0.005304
v -0.002475 0.659271 -0.003943
v 0.059805 0.659271 -0.002583
v 0.122085 0.659271 -0.001222
v 0.184365 0.659271 0.000139
vn 0.3894 -0.7698 0.5058
vn 0.6175 -0.7585 -0.2084
vn 0.5627 0.2930 0.7730
vn 0.9023 0.3060 -0.3036
vn -0.0851 0.9886 -0.1246
vn -0.3538 -0.7827 0.5121
vn -0.5618 0.2773 0.7794
vn 0.0819 0.9907 -0.1085
vn 0.3855 0.7353 -0.5574
vn -0.5912 -0.7828 -0.1941
vn -0.9186 0.2773 -0.2816
vn 0.1295 0.9908 0.0380
vn 0.6439 0.7347 0.2138
vn 0.0062 -0.7696 -0.6384
vn -0.0175 0.2927 -0.9560
vn 0.0078 0.9887 0.1497
vn -0.0095 0.7194 0.6945
vn -0.1524 0.9869 0.0522
vn -0.6704 0.7070 0.2255
vn -0.4280 0.7200 -0.5462
vn -0.0000 -1.0000 -0.0000
vn -0.5117 0.8512 0.1169
vn -0.5154 0.2498 0.8197
vn 0.5142 0.8452 0.1457
vn 0.0166 0.8653 -0.5010
vn 0.9409 0.3159 -0.1220
vn -0.9280 0.3396 -0.1535
vn 0.0192 0.3996 -0.9165
vn -0.8974 -0.0376 -0.4395
vn 0.9140 -0.0439 -0.4034
vn 0.4818 0.2431 0.8419
vn 0.5209 0.1746 0.8356
vn -0.5575 0.1746 0.8116
vn 0.0259 -0.2359 -0.9714
vn 0.0159 -0.7989 -0.6013
vn -0.4989 0.0607 0.8646
vn -0.9355 -0.3472 -0.0650
vn 0.4689 0.0611 0.8811
vn 0.9380 -0.3446 -0.0385
vn 0.4173 -0.8385 0.3505
vn -0.4340 -0.8377 0.3314
vn 0.1060 0.4823 -0.8696
vn 0.8594 -0.0424 0.5095
vn -0.2035 -0.9442 -0.2588
vn -0.6854 0.4427 0.5781
vn -0.2855 0.6149 0.7351
vn 0.9828 -0.1754 -0.0573
vn -0.2106 0.3974 -0.8932
vn -0.4703 -0.8712 0.1410
vn -0.0258 0.1458 0.9890
vn -0.0306 0.9283 0.3707
vn -0.7725 -0.3234 0.5465
vn 0.7273 -0.3419 0.5950
vn -0.0226 0.3691 0.9291
vn -0.0239 0.3695 0.9289
vn -0.0222 0.3690 0.9292
vn -0.0202 0.3635 0.9314
vn -0.0214 0.3640 0.9312
vn 0.0174 0.9998 0.0062
vn -0.0000 1.0000 -0.0000
vn -0.0218 0.3647 0.9309
vn -0.0218 0.3656 0.9305
vn -0.0218 0.3655 0.9306
vn -0.0217 0.3665 0.9302
vn -0.0218 0.3664 0.9302
vn -0.0218 0.3673 0.9298
vn -0.0217 0.3672 0.9299
vn -0.0216 0.3683 0.9294
vn -0.0219 0.3681 0.9295
vn -0.0174 -0.9998 -0.0062
vn -0.0034 -1.0000 -0.0030
vn 0.0226 -0.3691 -0.9291
vn 0.0222 -0.3690 -0.9292
vn 0.0239 -0.3695 -0.9289
vn 0.0202 -0.3635 -0.9314
vn 0.0214 -0.3640 -0.9312
vn 0.0218 -0.3647 -0.9309
vn 0.0218 -0.3655 -0.9306
vn 0.0218 -0.3656 -0.9305
vn 0.0218 -0.3664 -0.9302
vn 0.0217 -0.3665 -0.9302
vn 0.0217 -0.3672 -0.9299
vn 0.0218 -0.3673 -0.9298
vn 0.0219 -0.3681 -0.9295
vn 0.0216 -0.3683 -0.9294
vt 0.713839 0.563470
vt 0.713690 0.424143
vt 0.756144 0.556691
vt 0.756144 0.389946
vt 0.139701 0.021289
vt 0.331256 0.084074
vt 0.157523 0.077781
vt 0.373833 0.183014
vt 0.397870 0.047102
vt 0.418292 0.184778
vt 0.447132 0.021289
vt 0.080287 0.184628
vt 0.021289 0.184419
vt 0.852671 0.389947
vt 0.852671 0.521785
vt 0.798949 0.403370
vt 0.397919 0.318806
vt 0.447132 0.347369
vt 0.157541 0.291246
vt 0.139358 0.347370
vt 0.800348 0.616752
vt 0.854679 0.737712
vt 0.800348 0.727007
vt 0.854679 0.606047
vt 0.713751 0.744074
vt 0.713690 0.606047
vt 0.757771 0.778057
vt 0.757771 0.612037
vt 0.283130 0.251133
vt 0.331256 0.285657
vt 0.750599 0.204613
vt 0.804547 0.328226
vt 0.750824 0.314803
vt 0.804547 0.196387
vt 0.708022 0.194870
vt 0.665781 0.021289
vt 0.708022 0.028095
vt 0.665631 0.160641
vt 0.283598 0.118611
vt 0.405883 0.647714
vt 0.458877 0.770770
vt 0.405903 0.757656
vt 0.458877 0.638247
vt 0.566209 0.389947
vt 0.671113 0.533922
vt 0.501454 0.478794
vt 0.566209 0.567634
vt 0.671113 0.423667
vt 0.750618 0.034408
vt 0.803593 0.153810
vt 0.750599 0.144343
vt 0.803593 0.021289
vt 0.798721 0.513557
vt 0.279712 0.441539
vt 0.279712 0.609713
vt 0.223400 0.568800
vt 0.223400 0.482554
vt 0.120232 0.661651
vt 0.141611 0.595436
vt 0.021289 0.525803
vt 0.090869 0.525768
vt 0.119647 0.389947
vt 0.141312 0.456095
vt 0.846171 0.023582
vt 0.905341 0.021289
vt 0.846170 0.142861
vt 0.393897 0.871860
vt 0.458877 0.813347
vt 0.458877 0.930698
vt 0.620967 0.038631
vt 0.623054 0.094128
vt 0.536836 0.021289
vt 0.021289 0.852443
vt 0.022224 0.786207
vt 0.083173 0.848638
vt 0.458876 0.577541
vt 0.372432 0.595670
vt 0.457588 0.522847
vt 0.334392 0.547344
vt 0.436431 0.468590
vt 0.603991 0.148945
vt 0.501338 0.070399
vt 0.030084 0.722528
vt 0.905341 0.144043
vt 0.343368 0.849088
vt 0.282904 0.846542
vt 0.343368 0.782166
vt 0.332252 0.719865
vt 0.258622 0.794959
vt 0.895248 0.501160
vt 0.934668 0.389946
vt 0.934668 0.512701
vt 0.895251 0.402727
vt 0.489709 0.144795
vt 0.104427 0.796063
vt 0.502742 0.227037
vt 0.338644 0.389946
vt 0.322289 0.473034
vt 0.800354 0.791856
vt 0.860744 0.780289
vt 0.800348 0.890289
vt 0.159564 0.777535
vt 0.091553 0.707233
vt 0.205751 0.776971
vt 0.273130 0.704755
vt 0.458876 0.417379
vt 0.202141 0.704228
vt 0.623054 0.199291
vt 0.847130 0.316353
vt 0.898610 0.196387
vt 0.898610 0.319133
vt 0.847124 0.199397
vt 0.501454 0.666148
vt 0.510806 0.610211
vt 0.619733 0.660499
vt 0.159564 0.704228
vt 0.564481 0.764668
vt 0.619733 0.778343
vt 0.860744 0.903039
vt 0.970268 0.276962
vt 0.970268 0.312289
vt 0.941187 0.291598
vt 0.978074 0.021289
vt 0.978074 0.052114
vt 0.947918 0.046534
vt 0.978712 0.234385
vt 0.941187 0.212476
vt 0.978712 0.196387
vt 0.938833 0.947399
vt 0.903321 0.947399
vt 0.923810 0.909234
vt 0.118644 0.895020
vt 0.136941 0.934023
vt 0.100731 0.934023
vt 0.830894 0.976449
vt 0.800348 0.976449
vt 0.810352 0.945616
vt 0.227795 0.891665
vt 0.227795 0.933830
vt 0.202141 0.924069
vt 0.594754 0.312682
vt 0.561936 0.289499
vt 0.594754 0.269614
vt 0.519359 0.313142
vt 0.489709 0.283770
vt 0.519359 0.269614
vt 0.300795 0.932068
vt 0.270372 0.901877
vt 0.300795 0.891665
vt 0.021289 0.915700
vt 0.058154 0.895020
vt 0.058154 0.934416
vt 0.692591 0.335445
vt 0.699874 0.345240
vt 0.666229 0.336813
vt 0.666154 0.325957
vt 0.706468 0.237447
vt 0.692468 0.259194
vt 0.665706 0.260819
vt 0.665631 0.249963
vt 0.757771 0.927170
vt 0.712143 0.879607
vt 0.757771 0.820634
vt 0.636976 0.926265
vt 0.590266 0.870478
vt 0.636976 0.820920
vt 0.706468 0.269541
vt 0.665780 0.271675
vt 0.692509 0.284611
vt 0.665855 0.282532
vt 0.706452 0.296898
vt 0.665930 0.293388
vt 0.692550 0.310028
vt 0.666005 0.304244
vt 0.706436 0.324255
vt 0.666079 0.315100
vt 0.547689 0.820920
vt 0.547689 0.926772
vt 0.501454 0.868072
vt 0.944621 0.606047
vt 0.944621 0.710868
vt 0.897256 0.661352
vt 0.917078 0.857003
vt 0.941772 0.843304
vt 0.941772 0.852153
vt 0.910360 0.866657
vt 0.903321 0.780289
vt 0.941772 0.781362
vt 0.941772 0.790211
vt 0.916614 0.794857
vt 0.941772 0.799060
vt 0.903556 0.806426
vt 0.941772 0.807909
vt 0.916769 0.815572
vt 0.941772 0.816758
vt 0.903792 0.828722
vt 0.941772 0.825606
vt 0.916923 0.836288
vt 0.941772 0.834455
vt 0.904027 0.851018
vt 0.160676 0.385742
vt 0.178543 0.441346
vt 0.131330 0.475462
vt 0.084184 0.441056
vt 0.102272 0.385688
s 1
usemtl Nest
f 1/1/1 13/2/2 2/3/3
f 2/3/3 13/2/2 14/4/4
f 2/5/3 14/6/4 18/7/5
f 4/8/6 1/9/1 5/10/7
f 5/10/7 1/9/1 2/11/3
f 3/12/8 2/5/3 18/7/5
f 5/13/7 2/5/3 3/12/8
f 3/14/8 18/15/5 17/16/9
f 8/17/10 4/8/6 6/18/11
f 6/18/11 4/8/6 5/10/7
f 11/19/12 5/13/7 3/12/8
f 6/20/11 5/13/7 11/19/12
f 7/21/13 3/22/8 17/23/9
f 11/24/12 3/22/8 7/21/13
f 12/25/14 8/26/10 15/27/15
f 15/27/15 8/26/10 6/28/11
f 9/29/16 6/20/11 11/19/12
f 15/30/15 6/20/11 9/29/16
f 10/31/17 11/32/12 7/33/13
f 9/34/16 11/32/12 10/31/17
f 14/35/4 12/36/14 15/37/15
f 13/38/2 12/36/14 14/35/4
f 19/39/18 15/30/15 9/29/16
f 14/6/4 15/30/15 19/39/18
f 16/40/19 9/41/16 10/42/17
f 19/43/18 9/41/16 16/40/19
f 10/44/17 17/45/9 16/46/19
f 16/46/19 17/45/9 20/47/20
f 7/48/13 17/45/9 10/44/17
f 18/7/5 14/6/4 19/39/18
f 20/49/20 19/50/18 16/51/19
f 18/52/5 19/50/18 20/49/20
f 17/16/9 18/15/5 20/53/20
f 13/54/2 1/55/1 21/56/21 25/57/21
f 1/55/1 4/58/6 22/59/21 21/56/21
f 4/58/6 8/60/10 23/61/21 22/59/21
f 8/60/10 12/62/14 24/63/21 23/61/21
f 12/62/14 13/54/2 25/57/21 24/63/21
f 26/64/22 28/65/23 27/66/24
f 30/67/25 26/68/22 27/69/24
f 27/70/24 32/71/26 30/72/25
f 26/73/22 29/74/27 28/75/23
f 26/76/22 30/77/25 29/78/27
f 30/77/25 34/79/28 29/78/27
f 29/78/27 34/79/28 37/80/29
f 38/81/30 34/82/28 32/71/26
f 29/74/27 37/83/29 28/75/23
f 27/66/24 28/65/23 31/84/31
f 27/85/24 31/86/31 32/87/26
f 32/87/26 31/86/31 38/88/30
f 38/88/30 31/86/31 33/89/32
f 30/72/25 32/71/26 34/82/28
f 36/90/33 31/91/31 28/92/23
f 33/93/32 31/91/31 36/90/33
f 35/94/34 34/82/28 38/81/30
f 36/95/33 28/75/23 37/83/29
f 38/81/30 42/96/35 35/94/34
f 42/97/35 37/80/29 35/98/34
f 34/79/28 35/98/34 37/80/29
f 36/99/33 41/100/36 33/101/32
f 36/95/33 37/83/29 41/102/36
f 37/83/29 40/103/37 41/102/36
f 33/89/32 45/104/38 38/88/30
f 38/88/30 45/104/38 39/105/39
f 37/80/29 42/97/35 40/106/37
f 44/107/40 39/105/39 45/104/38
f 38/81/30 39/108/39 42/96/35
f 43/109/41 45/110/38 41/111/36
f 44/112/40 45/110/38 43/109/41
f 43/113/41 40/114/37 42/115/35
f 43/116/41 41/102/36 40/103/37
f 44/117/40 42/115/35 39/118/39
f 42/115/35 44/117/40 43/113/41
f 33/101/32 41/100/36 45/119/38
f 46/120/42 47/121/43 49/122/44
f 48/123/45 49/124/44 47/125/43
f 46/126/42 48/127/45 47/128/43
f 46/129/42 49/130/44 48/131/45
f 53/132/46 50/133/47 51/134/48
f 50/135/47 52/136/49 51/137/48
f 53/138/46 52/139/49 50/140/47
f 53/141/46 51/142/48 52/143/49
f 54/144/50 55/145/51 57/146/52
f 54/147/50 56/148/53 55/149/51
f 54/150/50 57/151/52 56/152/53
f 74/153/54 59/154/55 61/155/55 75/156/56
f 58/157/57 68/158/58 81/159/58 60/160/57
f 62/161/59 64/162/59 63/163/59
f 65/164/60 67/165/60 66/166/60
f 68/158/58 69/167/61 80/168/61 81/159/58
f 69/167/61 70/169/62 79/170/63 80/168/61
f 70/169/62 71/171/64 78/172/65 79/170/63
f 71/171/64 72/173/66 77/174/67 78/172/65
f 72/173/66 73/175/68 76/176/69 77/174/67
f 73/175/68 74/153/54 75/156/56 76/176/69
f 82/177/70 83/178/70 84/179/70
f 85/180/71 86/181/71 87/182/71
f 98/183/72 99/184/73 91/185/74 89/186/74
f 88/187/75 90/188/75 105/189/76 92/190/76
f 92/190/76 105/189/76 104/191/77 93/192/77
f 93/192/77 104/191/77 103/193/78 94/194/79
f 94/194/79 103/193/78 102/195/80 95/196/81
f 95/196/81 102/195/80 101/197/82 96/198/83
f 96/198/83 101/197/82 100/199/84 97/200/85
f 97/200/85 100/199/84 99/184/73 98/183/72
f 25/201/21 21/202/21 22/203/21 23/204/21 24/205/21
